<svg width="178" height="52" xmlns="http://www.w3.org/2000/svg"><g id="Symbols" stroke="none" stroke-width="1" fill="none" fill-rule="evenodd"><g id="Header-Footer/Header-transparent" transform="translate(-86 -67)" fill-rule="nonzero"><g id="Digio-Primary" transform="translate(86 67)"><g id="Group" transform="translate(54)" fill="#243746"><path d="M29.76.056v39.748h-7.25v-3.377c-1.962 2.506-5.013 4.14-8.882 4.14C5.998 40.566 0 34.358 0 26.027S5.997 11.49 13.628 11.49c3.869 0 6.92 1.581 8.882 4.085V.056h7.25zm-7.03 25.916c0-4.736-3.488-8.057-7.85-8.057s-7.74 3.321-7.74 8.057c0 4.736 3.216 8.167 7.739 8.167 4.522 0 7.85-3.373 7.85-8.167zM35.102 4.137C35.102 1.85 37.009 0 39.408 0c2.398 0 4.306 1.852 4.306 4.137 0 2.286-1.908 4.25-4.306 4.25-2.399 0-4.306-1.854-4.306-4.25zm.6 8.115h7.25v27.552h-7.25V12.252zm41.208 0v26.573C76.91 46.501 71.296 52 62.683 52c-6.76 0-11.01-3.105-13.298-7.242l6.267-2.232c1.42 2.232 3.71 3.541 7.196 3.541 4.522 0 6.813-3.159 6.869-7.242v-3.323c-2.072 2.56-5.072 3.978-8.72 3.978-7.903 0-13.628-6.154-13.628-13.994 0-8.275 5.725-13.994 13.627-13.994 3.651 0 6.649 1.417 8.72 3.978v-3.213h7.194v-.005zm-7.033 13.232c0-4.41-3.216-7.515-7.63-7.515-4.415 0-7.739 3.049-7.739 7.515 0 4.465 3.16 7.514 7.739 7.514 4.578 0 7.63-3.049 7.63-7.514zM82.25 4.137C82.25 1.85 84.158 0 86.556 0c2.399 0 4.306 1.852 4.306 4.137 0 2.286-1.905 4.25-4.306 4.25-2.4 0-4.306-1.854-4.306-4.25zm.601 8.115h7.25v27.552h-7.25V12.252zm11.662 13.776c0-8.275 6.268-14.538 14.772-14.538 8.504 0 14.715 6.263 14.715 14.538s-6.211 14.538-14.715 14.538-14.772-6.317-14.772-14.538zm22.51 0c0-4.574-3.16-8.003-7.738-8.003-4.579 0-7.739 3.43-7.739 8.003 0 4.574 3.108 8.003 7.739 8.003 4.63 0 7.738-3.429 7.738-8.003z" id="Shape"/></g><g id="Group"><path d="M21.596 0h-7.289C14.307 7.895 7.89 14.32 0 14.32v7.294c11.907 0 21.596-9.696 21.596-21.614z" id="Path" fill="#7E57C5"/><path d="M32.291 36.942c-2.523-9.26 1.385-19.438 10.075-24.436L46 18.83c-6.844 3.936-9.222 12.716-5.277 19.551l-6.321 3.634a21.631 21.631 0 01-2.11-5.076v.003z" id="Path" fill="#00CE7C"/><path d="M18.226 26.281c-.493-9.585 5.493-18.693 15.05-21.722l2.204 6.955c-7.527 2.384-11.72 10.455-9.324 17.976l-6.952 2.2a21.688 21.688 0 01-.98-5.409h.002z" id="Path" fill="#FFC844"/><path d="M3.513 33.135C8.287 41.46 18.247 45.872 27.919 43.24l-1.91-7.041c-7.617 2.073-15.51-2.439-17.565-10.059l-7.033 1.915a21.567 21.567 0 002.104 5.079h-.002z" id="Path" fill="#FF8189"/></g></g></g></g></svg>